<svg xmlns="http://www.w3.org/2000/svg" width="170" height="64" fill="none" viewBox="0 0 170 64"><path fill="#fff" fill-rule="evenodd" d="M168.874 24.657c-.761-2.43-1.821-4.63-3.311-6.549-1.489-1.918-3.31-3.307-5.462-4.35-.613-.33-1.358-.66-1.987-.826 0 0-.232-.132-.447-.132-.099 0-.215 0-.331-.116-.083 0-.199 0-.199-.116l-1.572-.33c-1.159-.2-2.649-.298-4.371-.2-2.549.117-4.8.662-6.787 1.588-2.152 1.059-3.973 2.547-5.463 4.333-1.49 1.919-2.549 4.019-3.311 6.566-.728 2.414-1.059 5.16-1.059 7.905 0 2.86.331 5.507 1.076 7.938a21.4 21.4 0 0 0 3.311 6.45 17.7 17.7 0 0 0 3.642 3.274c.629.43 1.158.744 1.821 1.058h.082s.1 0 .1.1c.071 0 .104.033.134.064.027.026.051.051.098.051 1.076.53 2.251.827 3.526 1.059 3.724.727 6.919.215 6.919.215 1.705-.215 3.311-.745 4.801-1.39 2.235-1.058 4.039-2.53 5.546-4.332 1.49-1.786 2.549-4.019 3.311-6.45.728-2.431 1.059-5.077 1.059-7.938 0-2.845-.43-5.49-1.076-7.938zm-24.947 2.315c.43-1.653.96-3.258 1.705-4.53.745-1.258 1.705-2.316 2.765-3.044a6.5 6.5 0 0 1 3.724-1.157c1.391 0 2.566.297 3.642 1.041 1.06.728 1.904 1.654 2.649 2.845.745 1.273 1.291 2.646 1.705 4.333.447 1.686.662 3.39.662 5.292v.628a30.5 30.5 0 0 1-.529 5.49c-.431 1.704-.961 3.176-1.706 4.466-.744 1.257-1.705 2.2-2.781 2.944-1.059.744-2.317 1.058-3.724 1.058-1.391 0-2.649-.33-3.725-1.059-1.076-.744-2.036-1.686-2.781-2.976-.762-1.257-1.291-2.729-1.722-4.432-.414-1.687-.53-3.589-.53-5.49.116-1.82.332-3.705.663-5.392zm-23.358 26.03-4.139 4.747-.43.43.43 5.821h6.39l6.721-7.508v-23.88l-.198-1.82-8.774 4.532z" clip-rule="evenodd"/><path fill="#fff" fill-rule="evenodd" d="M66.696 10.861 62.548 6.25 62 5.856 62.431 0l6.389.098 6.87 7.426v24.16l-.2 1.342-8.794-4.58zm58.874 6.494c1.493 1.898 2.555 4.073 3.318 6.478l.033-.066c.747 2.421 1.079 5.038 1.079 7.852 0 2.83-.332 5.447-1.062 7.851-.763 2.405-1.825 4.613-3.319 6.38a16 16 0 0 1-5.558 4.285c-1.494.638-3.103 1.162-4.813 1.374 0 0-3.202.507-6.936-.212-1.277-.23-2.455-.524-3.517-1.047-.061 0-.09-.031-.118-.06-.025-.028-.05-.055-.098-.055 0-.098-.116-.098-.116-.098h-.083a13 13 0 0 1-1.826-1.047c-1.393-.949-2.572-1.979-3.65-3.239a21 21 0 0 1-3.319-6.379c-.73-2.404-1.062-5.022-1.062-7.851 0-2.716.316-5.431 1.046-7.82.763-2.518 1.825-4.596 3.318-6.493 1.494-1.767 3.319-3.239 5.476-4.286 1.991-.916 4.248-1.456 6.803-1.57 1.726-.098 3.22 0 4.381.196l1.576.327c0 .115.117.115.2.115a.43.43 0 0 0 .331.114c.216 0 .448.131.448.131.631.164 1.378.491 1.992.818 2.157 1.03 3.982 2.405 5.476 4.302m-19.879 4.286c-.747 1.26-1.278 2.846-1.693 4.482l.017.016c-.426 1.647-.545 3.486-.66 5.264l-.004.069c0 1.88.099 3.762.531 5.43.431 1.685.962 3.14 1.709 4.384.747 1.276 1.709 2.208 2.771 2.944 1.079.72 2.356 1.047 3.767 1.047 1.377 0 2.671-.31 3.733-1.047s2.025-1.668 2.755-2.911c.747-1.276 1.294-2.732 1.709-4.417.332-1.668.564-3.55.564-5.43v-.622c0-1.881-.232-3.566-.664-5.234-.431-1.669-.962-3.026-1.709-4.286-.746-1.178-1.609-2.094-2.655-2.813-1.078-.737-2.256-1.031-3.65-1.031-1.411 0-2.672.409-3.734 1.145-1.078.72-2.041 1.767-2.787 3.01M80.469 11.516h8.96V52h-8.96z" clip-rule="evenodd"/><path fill="#fff" fill-rule="evenodd" d="M84.874 2c-2.277 0-4.125 1.868-4.125 4.17 0 2.418 1.848 4.27 4.125 4.17C87.152 10.34 89 8.472 89 6.17S87.152 2 84.874 2m-53.98 16.996c1.485 1.935 2.54 4.154 3.3 6.605l.033-.066c.743 2.468 1.073 5.137 1.073 8.006 0 2.885-.33 5.554-1.056 8.006-.76 2.452-1.816 4.704-3.301 6.505-1.485 1.818-3.3 3.303-5.529 4.37-1.485.65-3.086 1.184-4.785 1.401 0 0-3.186.517-6.899-.217-1.27-.233-2.442-.534-3.515-1.067-.099 0-.099 0-.198-.117 0-.1-.115-.1-.115-.1h-.083a12.6 12.6 0 0 1-1.815-1.068c-1.386-.967-2.558-2.018-3.63-3.302-1.486-1.835-2.542-3.953-3.301-6.505C.33 38.995 0 36.327 0 33.44c0-2.769.33-5.538 1.056-7.973.76-2.569 1.816-4.687 3.3-6.622 1.486-1.801 3.301-3.302 5.447-4.37 1.98-.934 4.224-1.484 6.766-1.601 1.716-.1 3.201 0 4.357.2l1.567.334c0 .116.116.116.199.116.131.117.23.117.33.117.214 0 .445.134.445.134.627.167 1.37.5 1.98.834 2.146 1.05 3.961 2.452 5.446 4.386M74.477 25.6c-.76-2.451-1.816-4.67-3.301-6.605-1.485-1.934-3.3-3.335-5.446-4.386-.61-.334-1.353-.667-1.98-.834 0 0-.231-.134-.446-.134-.099 0-.215 0-.33-.117-.1 0-.198 0-.198-.116l-1.584-.334c-1.155-.2-2.64-.3-4.34-.2-2.542.117-4.786.667-6.767 1.601-2.145 1.068-3.96 2.569-5.446 4.37-1.485 1.935-2.541 4.053-3.3 6.622-.726 2.435-1.057 5.204-1.057 7.973 0 2.885.33 5.554 1.073 8.006.76 2.452 1.914 4.67 3.3 6.505a17.7 17.7 0 0 0 3.631 3.303c.627.433 1.898 1.067 1.898 1.067s.1 0 .1.1c.07 0 .103.034.133.065.027.027.051.052.097.052 1.073.533 2.228.834 3.515 1.067 3.714.734 6.899.217 6.899.217 1.7-.217 3.3-.75 4.785-1.401 2.228-1.067 4.027-2.552 5.529-4.37 1.485-1.801 2.541-4.053 3.3-6.505.727-2.452 1.04-5.12 1.04-8.006 0-2.869-.412-5.538-1.056-8.006zm-24.87 2.336c.429-1.668.957-3.286 1.7-4.57.742-1.268 1.7-2.336 2.755-3.07a6.4 6.4 0 0 1 3.714-1.167c1.386 0 2.557.3 3.63 1.05 1.056.735 1.898 1.669 2.64 2.87.743 1.284 1.271 2.668 1.7 4.37.446 1.7.66 3.419.66 5.337v.634c0 1.918-.214 3.836-.528 5.537-.429 1.718-.957 3.203-1.7 4.504-.742 1.267-1.7 2.218-2.772 2.969-1.056.75-2.31 1.067-3.713 1.067-1.386 0-2.64-.333-3.713-1.067-1.073-.75-2.03-1.702-2.773-3.003-.759-1.267-1.287-2.752-1.716-4.47-.412-1.701-.528-3.62-.528-5.537.116-1.835.33-3.736.66-5.438zm-40.168 0c.412-1.668.94-3.286 1.683-4.57.743-1.268 1.7-2.336 2.772-3.07a6.3 6.3 0 0 1 3.714-1.167c1.386 0 2.557.3 3.63 1.05 1.04.735 1.898 1.669 2.64 2.87.743 1.284 1.271 2.668 1.7 4.37.43 1.7.66 3.419.66 5.337l-.032.634a29.5 29.5 0 0 1-.529 5.537c-.412 1.718-.957 3.203-1.7 4.504-.725 1.267-1.683 2.218-2.739 2.969s-2.343 1.067-3.713 1.067c-1.403 0-2.673-.333-3.746-1.067-1.056-.75-2.013-1.702-2.756-3.003-.66-1.05-1.155-2.535-1.6-4.336-.43-1.718-.545-3.67-.545-5.571 0-1.918.115-3.836.528-5.538z" clip-rule="evenodd"/></svg>